# xmcd
#
# Track frame offsets: 
#        150
#        15418
#        32079
#        47727
#        69023
#        86526
#        107885
#        128174
#        151302
#        172139
#        188375
#        202804
#
# Disc length: 2843 seconds
#
# Revision: 0
# Processed by: cddbd v1.5.2PL0 Copyright (c) Steve Scherf et al.
# Submitted via: ExactAudioCopyFreeDBPlugin 1.0
#
DISCID=8c0b190c
DTITLE=Mikey Junior - Traveling South
DYEAR=2014
DGENRE=Blues
TTITLE0=Traveling South
TTITLE1=Nobody Does It Like Me
TTITLE2=Morning On My Way
TTITLE3=Mill Tavern
TTITLE4=Katie Lynn
TTITLE5=Bad Time Blues
TTITLE6=The Cheat
TTITLE7=You
TTITLE8=She's Good At Being Bad
TTITLE9=Please Come Back
TTITLE10=Wrong Number
TTITLE11=Trying To Do the Best I Can
EXTD=
EXTT0=
EXTT1=
EXTT2=
EXTT3=
EXTT4=
EXTT5=
EXTT6=
EXTT7=
EXTT8=
EXTT9=
EXTT10=
EXTT11=
PLAYORDER=
